HIERARCHY
ROOT Hips
{
	OFFSET 0.000000 83.214638 0.000000
	CHANNELS 6 Xposition Yposition Zposition Xrotation Yrotation Zrotation
	JOINT Pelvis
	{
		OFFSET 0.000000 0.000000 0.000000
		CHANNELS 3 Xrotation Yrotation Zrotation
		JOINT LeftUpLeg
		{
			OFFSET 8.479700 -4.795502 -0.379100
			CHANNELS 3 Xrotation Yrotation Zrotation
			JOINT LeftLeg
			{
				OFFSET 0.024144 -32.555107 0.112900
				CHANNELS 3 Xrotation Yrotation Zrotation
				JOINT LeftFoot
				{
					OFFSET -0.024144 -32.638630 -3.012600
					CHANNELS 3 Xrotation Yrotation Zrotation
					JOINT LeftToeBase
					{
						OFFSET 0.970200 -13.225400 11.864200
						CHANNELS 3 Xrotation Yrotation Zrotation
						End Site
						{
							OFFSET 0.000000 12.319262 0.000000
						}
					}
					JOINT LFootTongue
					{
						OFFSET 1.142400 -1.059800 6.665200
						CHANNELS 3 Xrotation Yrotation Zrotation
						End Site
						{
							OFFSET 0.000000 12.319262 0.000000
						}
					}
				}
				JOINT LeftPantLeg
				{
					OFFSET 0.918482 -16.533964 -2.284700
					CHANNELS 3 Xrotation Yrotation Zrotation
					End Site
					{
						OFFSET 0.350399 24.744368 0.000000
					}
				}
			}
		}
		JOINT RightUpLeg
		{
			OFFSET -8.479700 -4.795502 -0.379100
			CHANNELS 3 Xrotation Yrotation Zrotation
			JOINT RightLeg
			{
				OFFSET -0.023144 -32.555092 0.112900
				CHANNELS 3 Xrotation Yrotation Zrotation
				JOINT RightFoot
				{
					OFFSET 0.023144 -32.638641 -3.012700
					CHANNELS 3 Xrotation Yrotation Zrotation
					JOINT RightToeBase
					{
						OFFSET -0.970200 -13.225400 11.864200
						CHANNELS 3 Xrotation Yrotation Zrotation
						End Site
						{
							OFFSET 0.000000 12.319244 0.000000
						}
					}
					JOINT RFootTongue
					{
						OFFSET -1.142200 -1.059800 6.665200
						CHANNELS 3 Xrotation Yrotation Zrotation
						End Site
						{
							OFFSET 0.000000 12.319243 0.000000
						}
					}
				}
				JOINT RightPantLeg
				{
					OFFSET -0.919482 -16.533978 -2.284800
					CHANNELS 3 Xrotation Yrotation Zrotation
					End Site
					{
						OFFSET -0.350400 24.744419 0.000000
					}
				}
			}
		}
	}
	JOINT Spine
	{
		OFFSET 0.000000 7.722000 1.166200
		CHANNELS 3 Xrotation Yrotation Zrotation
		JOINT Spine1
		{
			OFFSET 0.000000 12.024101 0.248800
			CHANNELS 3 Xrotation Yrotation Zrotation
			JOINT Spine2
			{
				OFFSET 0.000000 11.502998 -0.491200
				CHANNELS 3 Xrotation Yrotation Zrotation
				JOINT Neck
				{
					OFFSET 0.000000 18.430702 -3.123100
					CHANNELS 3 Xrotation Yrotation Zrotation
					JOINT Head
					{
						OFFSET 0.000000 9.051102 1.034000
						CHANNELS 3 Xrotation Yrotation Zrotation
						JOINT HairB
						{
							OFFSET 0.208400 24.786102 24.822300
							CHANNELS 3 Xrotation Yrotation Zrotation
							End Site
							{
								OFFSET 0.000000 32.263779 0.000000
							}
						}
						JOINT HairA
						{
							OFFSET -7.081100 24.428299 23.196600
							CHANNELS 3 Xrotation Yrotation Zrotation
							End Site
							{
								OFFSET 0.000000 32.263779 0.000000
							}
						}
						JOINT Hat
						{
							OFFSET 16.728800 15.048294 -15.439601
							CHANNELS 3 Xrotation Yrotation Zrotation
							End Site
							{
								OFFSET 0.000000 32.263779 0.000000
							}
						}
					}
				}
				JOINT LeftShoulder
				{
					OFFSET 6.197800 13.665199 -4.064700
					CHANNELS 3 Xrotation Yrotation Zrotation
					JOINT LeftArm
					{
						OFFSET 7.778100 -0.187103 -1.709300
						CHANNELS 3 Xrotation Yrotation Zrotation
						JOINT LeftForeArm
						{
							OFFSET 22.049376 0.000000 0.000000
							CHANNELS 3 Xrotation Yrotation Zrotation
							JOINT LeftHand
							{
								OFFSET 23.009392 0.000000 0.000000
								CHANNELS 3 Xrotation Yrotation Zrotation
								JOINT LeftHandThumb1
								{
									OFFSET 3.507191 -2.063065 3.133727
									CHANNELS 3 Xrotation Yrotation Zrotation
									JOINT LeftHandThumb2
									{
										OFFSET 3.101337 -1.790558 1.790558
										CHANNELS 3 Xrotation Yrotation Zrotation
										JOINT LeftHandThumb3
										{
											OFFSET 3.058640 -1.765907 1.765906
											CHANNELS 3 Xrotation Yrotation Zrotation
											End Site
											{
												OFFSET -0.415260 3.926476 -0.049563
											}
										}
									}
								}
								JOINT LeftHandIndex1
								{
									OFFSET 11.334419 -0.901459 3.706815
									CHANNELS 3 Xrotation Yrotation Zrotation
									JOINT LeftHandIndex2
									{
										OFFSET 3.283112 0.000000 0.000000
										CHANNELS 3 Xrotation Yrotation Zrotation
										JOINT LeftHandIndex3
										{
											OFFSET 3.323853 0.000000 0.000000
											CHANNELS 3 Xrotation Yrotation Zrotation
											End Site
											{
												OFFSET -1.135597 3.097809 0.402452
											}
										}
									}
								}
								JOINT LeftHandMiddle1
								{
									OFFSET 11.335861 0.000000 0.000000
									CHANNELS 3 Xrotation Yrotation Zrotation
									JOINT LeftHandMiddle2
									{
										OFFSET 3.410492 0.000000 0.000000
										CHANNELS 3 Xrotation Yrotation Zrotation
										JOINT LeftHandMiddle3
										{
											OFFSET 3.312172 0.000000 0.000000
											CHANNELS 3 Xrotation Yrotation Zrotation
											End Site
											{
												OFFSET -1.150200 3.080154 0.400270
											}
										}
									}
								}
								JOINT LeftHandRing1
								{
									OFFSET 11.514786 -0.013176 -3.003090
									CHANNELS 3 Xrotation Yrotation Zrotation
									JOINT LeftHandRing2
									{
										OFFSET 3.053307 0.000000 0.000000
										CHANNELS 3 Xrotation Yrotation Zrotation
										JOINT LeftHandRing3
										{
											OFFSET 3.295807 0.000000 0.000000
											CHANNELS 3 Xrotation Yrotation Zrotation
											End Site
											{
												OFFSET -1.281006 3.013344 0.375733
											}
										}
									}
								}
								JOINT LeftHandPinky1
								{
									OFFSET 10.518692 -0.960396 -5.730441
									CHANNELS 3 Xrotation Yrotation Zrotation
									JOINT LeftHandPinky2
									{
										OFFSET 2.861649 0.000000 0.000000
										CHANNELS 3 Xrotation Yrotation Zrotation
										JOINT LeftHandPinky3
										{
											OFFSET 2.863380 0.000000 0.000000
											CHANNELS 3 Xrotation Yrotation Zrotation
											End Site
											{
												OFFSET -0.843597 2.711159 0.369971
											}
										}
									}
								}
							}
							JOINT LSleeve
							{
								OFFSET 6.676277 -0.344902 -1.011730
								CHANNELS 3 Xrotation Yrotation Zrotation
								End Site
								{
									OFFSET 0.000000 14.885353 0.000000
								}
							}
						}
					}
				}
				JOINT RightShoulder
				{
					OFFSET -6.197800 13.665199 -4.064700
					CHANNELS 3 Xrotation Yrotation Zrotation
					JOINT RightArm
					{
						OFFSET -7.778100 -0.187103 -1.709300
						CHANNELS 3 Xrotation Yrotation Zrotation
						JOINT RightForeArm
						{
							OFFSET -22.049376 0.000000 0.000000
							CHANNELS 3 Xrotation Yrotation Zrotation
							JOINT RightHand
							{
								OFFSET -23.009392 0.000000 0.000000
								CHANNELS 3 Xrotation Yrotation Zrotation
								JOINT RightHandThumb1
								{
									OFFSET -3.507191 -2.063065 3.133727
									CHANNELS 3 Xrotation Yrotation Zrotation
									JOINT RightHandThumb2
									{
										OFFSET -3.101337 -1.790558 1.790558
										CHANNELS 3 Xrotation Yrotation Zrotation
										JOINT RightHandThumb3
										{
											OFFSET -3.058640 -1.765907 1.765906
											CHANNELS 3 Xrotation Yrotation Zrotation
											End Site
											{
												OFFSET 0.415260 3.926476 -0.049563
											}
										}
									}
								}
								JOINT RightHandIndex1
								{
									OFFSET -11.334419 -0.901459 3.706815
									CHANNELS 3 Xrotation Yrotation Zrotation
									JOINT RightHandIndex2
									{
										OFFSET -3.283112 0.000000 0.000000
										CHANNELS 3 Xrotation Yrotation Zrotation
										JOINT RightHandIndex3
										{
											OFFSET -3.323853 0.000000 0.000000
											CHANNELS 3 Xrotation Yrotation Zrotation
											End Site
											{
												OFFSET 1.135597 3.097809 0.402452
											}
										}
									}
								}
								JOINT RightHandMiddle1
								{
									OFFSET -11.335861 0.000000 0.000000
									CHANNELS 3 Xrotation Yrotation Zrotation
									JOINT RightHandMiddle2
									{
										OFFSET -3.410492 0.000000 0.000000
										CHANNELS 3 Xrotation Yrotation Zrotation
										JOINT RightHandMiddle3
										{
											OFFSET -3.312172 0.000000 0.000000
											CHANNELS 3 Xrotation Yrotation Zrotation
											End Site
											{
												OFFSET 1.150200 3.080154 0.400270
											}
										}
									}
								}
								JOINT RightHandRing1
								{
									OFFSET -11.514786 -0.013176 -3.003090
									CHANNELS 3 Xrotation Yrotation Zrotation
									JOINT RightHandRing2
									{
										OFFSET -3.053307 0.000000 0.000000
										CHANNELS 3 Xrotation Yrotation Zrotation
										JOINT RightHandRing3
										{
											OFFSET -3.295807 0.000000 0.000000
											CHANNELS 3 Xrotation Yrotation Zrotation
											End Site
											{
												OFFSET 1.281006 3.013344 0.375733
											}
										}
									}
								}
								JOINT RightHandPinky1
								{
									OFFSET -10.518692 -0.960396 -5.730441
									CHANNELS 3 Xrotation Yrotation Zrotation
									JOINT RightHandPinky2
									{
										OFFSET -2.861649 0.000000 0.000000
										CHANNELS 3 Xrotation Yrotation Zrotation
										JOINT RightHandPinky3
										{
											OFFSET -2.863380 0.000000 0.000000
											CHANNELS 3 Xrotation Yrotation Zrotation
											End Site
											{
												OFFSET 0.843597 2.711159 0.369971
											}
										}
									}
								}
							}
							JOINT RSleeve
							{
								OFFSET -6.676277 -0.344902 -1.011730
								CHANNELS 3 Xrotation Yrotation Zrotation
								End Site
								{
									OFFSET 0.000000 14.885353 0.000000
								}
							}
						}
					}
				}
				JOINT Backpack
				{
					OFFSET 0.000000 -2.471497 36.677502
					CHANNELS 3 Xrotation Yrotation Zrotation
					End Site
					{
						OFFSET 0.000000 20.427315 0.000000
					}
				}
				JOINT Hood
				{
					OFFSET 0.000000 18.754097 -10.431000
					CHANNELS 3 Xrotation Yrotation Zrotation
					JOINT Hood1
					{
						OFFSET 0.000000 -5.011002 -7.685901
						CHANNELS 3 Xrotation Yrotation Zrotation
						End Site
						{
							OFFSET 0.000000 9.175140 0.000000
						}
					}
				}
				JOINT LHoodieString
				{
					OFFSET 5.250500 16.397697 3.089900
					CHANNELS 3 Xrotation Yrotation Zrotation
					JOINT LHoodieString1
					{
						OFFSET 0.257700 -6.364304 3.694600
						CHANNELS 3 Xrotation Yrotation Zrotation
						JOINT LHoodieString2
						{
							OFFSET 0.000000 -9.643799 2.679100
							CHANNELS 3 Xrotation Yrotation Zrotation
							End Site
							{
								OFFSET 0.000000 10.009018 0.000000
							}
						}
					}
				}
				JOINT RHoodieString
				{
					OFFSET -5.250500 16.397697 3.089900
					CHANNELS 3 Xrotation Yrotation Zrotation
					JOINT RHoodieString1
					{
						OFFSET -0.257700 -6.364304 3.694600
						CHANNELS 3 Xrotation Yrotation Zrotation
						JOINT RHoodieString2
						{
							OFFSET 0.000000 -9.643799 2.679100
							CHANNELS 3 Xrotation Yrotation Zrotation
							End Site
							{
								OFFSET 0.000000 10.009018 0.000000
							}
						}
					}
				}
			}
			JOINT LBackpack_Strap
			{
				OFFSET 15.223200 -7.719803 -6.610900
				CHANNELS 3 Xrotation Yrotation Zrotation
				End Site
				{
					OFFSET 0.000000 16.040596 0.000000
				}
			}
			JOINT RBackpack_Strap
			{
				OFFSET -15.223000 -7.719803 -6.610900
				CHANNELS 3 Xrotation Yrotation Zrotation
				End Site
				{
					OFFSET 0.000000 16.040596 0.000000
				}
			}
		}
	}
	JOINT BoyFacialAnim_Joint
	{
		OFFSET 1.000000 -82.208099 -1.550900
		CHANNELS 3 Xrotation Yrotation Zrotation
		End Site
		{
			OFFSET 0.000000 30.012791 0.000000
		}
	}
}
MOTION
Frames: 4
Frame Time: 0.016667
-0.011732 48.754860 1.122669 0.144538 0.155080 0.943217 0.000000 -0.000000 0.000000 -91.314479 -6.421586 11.344239 82.452889 6.244270 0.212929 10.076091 -7.293419 -5.912366 0.000000 -0.000000 -0.000000 0.000000 -0.000000 -0.000000 0.000001 -0.000003 0.000001 -92.209179 7.731098 -7.456634 82.465136 -5.942744 -1.840436 11.081312 0.323658 6.992985 0.000000 -0.000001 -0.000000 0.000000 -0.000001 -0.000000 -0.000000 -0.000000 0.000000 10.430457 0.029715 -1.557685 -0.199273 0.216427 -0.355483 -0.199596 0.248527 -0.300892 -1.001770 -1.276608 0.469465 -8.883412 -4.319392 -5.320495 0.000000 -0.000000 0.000000 0.000000 -0.000000 0.000000 0.000000 -0.000000 0.000000 0.823520 -15.262022 -7.868748 4.746758 -21.216401 -54.862190 -0.000031 -62.197533 -0.000030 31.062952 4.315282 41.770220 6.610627 1.798236 20.801491 2.716395 20.172585 -24.389173 0.000000 0.000000 0.000000 -0.224162 2.792782 -26.913879 0.396834 2.121290 -21.189292 -0.000002 -0.000000 -0.000004 1.299140 7.334331 -16.510929 0.329966 1.940090 -19.302451 -0.000002 -0.000001 0.000002 1.797285 9.808444 -14.182660 0.205956 1.541225 -15.221572 -0.000002 0.000001 -0.000002 2.041535 10.867644 -13.920346 0.168527 1.396442 -13.761315 -0.000000 -0.000001 -0.000000 -0.000001 0.000000 -0.000004 3.171098 -4.378722 8.782891 -3.950246 37.253399 63.733663 0.000015 55.137911 -0.000014 43.537286 4.741011 -36.277952 -9.383509 -1.613342 -17.604705 3.563442 -24.331448 34.658828 -0.000004 0.000001 -0.000002 2.952117 1.011176 13.530160 0.472455 -2.045708 26.006739 0.000001 -0.000001 0.000002 0.105313 -3.658223 2.530038 0.585003 -2.261686 29.000635 0.000001 0.000000 -0.000002 0.455265 -7.625805 4.309858 0.107453 -0.995712 12.318862 -0.000001 -0.000001 0.000002 -11.164700 -10.228257 7.169465 0.029117 -0.520508 6.403070 -0.000001 -0.000001 0.000002 0.000003 -0.000000 -0.000004 0.000000 0.000000 0.000000 0.000000 0.000000 0.000000 0.000000 0.000000 0.000000 0.000000 0.000000 0.000000 0.000000 0.000000 0.000000 -0.000001 0.000000 0.000000 0.000000 0.000000 0.000000 0.000000 0.000000 0.000000 -0.000001 0.000000 0.000000 -0.000000 -0.000000 0.000000 -0.000000 -0.000000 0.000000 0.000000 -0.000000 0.000000 
-0.012893 48.738678 1.145558 0.220986 0.169143 0.946246 0.000000 -0.000000 0.000000 -91.482358 -6.404956 11.270813 82.505926 6.283590 0.237218 10.162755 -7.248722 -5.706441 -0.000000 -0.000000 0.000000 -0.000000 -0.000000 0.000000 0.000001 -0.000003 0.000000 -92.376526 7.763635 -7.376549 82.619464 -6.000862 -1.882656 11.102206 0.269635 6.880532 -0.000000 0.000001 -0.000000 -0.000000 0.000001 -0.000000 -0.000000 -0.000001 -0.000000 10.467100 0.024164 -1.560231 -0.063328 0.215446 -0.380943 -0.135199 0.251406 -0.311500 -0.819939 -1.276514 0.424692 -9.824154 -4.410230 -5.195478 -0.000000 -0.000000 -0.000000 -0.000000 -0.000000 -0.000000 -0.000000 -0.000000 -0.000000 1.153614 -14.769743 -6.772559 2.903374 -20.762701 -57.237747 0.000061 -61.769656 0.000063 32.795194 3.652922 41.345054 6.533107 1.838518 20.872486 2.677555 20.203957 -24.333464 0.000003 0.000001 0.000000 -0.213802 2.829576 -27.080115 0.399415 2.127934 -21.258942 0.000000 0.000000 -0.000005 1.306675 7.335278 -16.626916 0.323878 1.922671 -19.122281 0.000003 0.000000 0.000002 1.816491 9.843941 -14.270844 0.205424 1.539309 -15.202391 -0.000003 0.000001 -0.000002 2.011330 10.855354 -13.919871 0.168835 1.397708 -13.774330 0.000001 0.000002 0.000000 0.000001 0.000001 0.000002 3.187849 -4.727845 8.245239 -4.932277 37.148381 65.022110 0.000054 54.880092 -0.000054 44.176502 5.104095 -36.335363 -9.372626 -1.608892 -17.589740 3.594665 -24.360887 34.677366 -0.000006 -0.000002 0.000004 2.953641 1.011730 13.517899 0.476482 -2.053913 26.119026 -0.000002 0.000001 0.000002 0.105320 -3.658235 2.530066 0.587669 -2.266507 29.068042 0.000000 0.000001 0.000002 0.455269 -7.625852 4.309881 0.108252 -0.999318 12.364094 0.000002 -0.000002 0.000002 -11.166266 -10.222018 7.155015 0.029199 -0.521238 6.412215 -0.000000 -0.000000 -0.000002 -0.000000 0.000001 -0.000002 -0.000000 0.000000 0.000000 -0.000000 0.000000 0.000000 -0.000000 0.000000 0.000000 -0.000000 0.000000 0.000000 -0.000000 0.000000 0.000000 -0.000001 -0.000000 -0.000000 -0.000000 0.000000 0.000000 -0.000000 0.000000 0.000000 -0.000001 -0.000000 -0.000000 -0.000000 0.000000 0.000000 -0.000000 0.000000 0.000000 0.000000 -0.000000 0.000000 
-0.014388 48.719299 1.168617 0.269508 0.182113 0.950835 -0.000000 0.000000 -0.000000 -91.669048 -6.414574 11.200754 82.531744 6.319899 0.293867 10.441290 -7.161136 -5.697471 -0.000000 -0.000001 -0.000000 -0.000000 -0.000001 -0.000000 -0.000001 -0.000002 -0.000000 -92.563489 7.794491 -7.264058 82.764421 -6.021767 -1.972685 11.325953 0.171144 6.844271 0.000000 -0.000000 0.000000 0.000000 -0.000000 0.000000 0.000001 0.000000 -0.000001 10.538159 0.016506 -1.563814 0.117320 0.217353 -0.407599 -0.022414 0.256674 -0.330249 -0.608621 -1.274648 0.376579 -10.758938 -4.494757 -5.054919 0.000000 0.000000 -0.000000 0.000000 0.000000 -0.000000 0.000000 0.000000 -0.000000 1.483756 -14.226183 -5.573874 1.069126 -20.426966 -59.574187 0.000007 -61.355091 -0.000009 34.405937 2.995964 41.065088 6.452964 1.879058 20.945115 2.637621 20.235381 -24.276313 -0.000000 -0.000001 -0.000000 -0.202168 2.869514 -27.281738 0.403268 2.137818 -21.362743 -0.000002 -0.000002 0.000001 1.314182 7.336110 -16.743276 0.317877 1.905289 -18.942382 0.000001 0.000000 0.000002 1.837855 9.880261 -14.375289 0.203774 1.533241 -15.140800 -0.000001 0.000000 -0.000000 1.980444 10.842486 -13.919526 0.169157 1.399074 -13.787683 -0.000001 0.000002 -0.000002 0.000003 0.000001 0.000001 3.198768 -5.102191 7.675742 -5.994475 37.040164 66.362364 0.000010 54.665730 0.000005 44.858432 5.503235 -36.428855 -9.351714 -1.600130 -17.560061 3.651756 -24.412455 34.712353 -0.000000 0.000001 0.000001 2.954285 1.012330 13.493638 0.483852 -2.068900 26.324302 -0.000001 0.000002 0.000004 0.105319 -3.658245 2.530051 0.592575 -2.275308 29.192092 0.000001 -0.000001 -0.000002 0.455270 -7.625848 4.309869 0.109727 -1.006010 12.448368 -0.000000 -0.000000 0.000002 -11.173426 -10.204981 7.126040 0.029270 -0.521835 6.419545 -0.000002 -0.000001 0.000000 0.000002 -0.000002 0.000002 -0.000000 0.000000 -0.000000 -0.000000 0.000000 -0.000000 -0.000000 0.000000 -0.000000 -0.000000 0.000000 -0.000000 -0.000000 0.000000 -0.000000 0.000001 0.000000 -0.000000 -0.000000 0.000000 -0.000000 -0.000000 0.000000 -0.000000 0.000001 0.000000 -0.000000 0.000001 0.000000 0.000000 0.000001 0.000000 0.000000 -0.000000 0.000000 -0.000000 
-0.016117 48.697586 1.191680 0.302268 0.194622 0.956331 0.000000 -0.000000 0.000000 -91.898358 -6.428898 11.110871 82.621028 6.387457 0.374342 10.635364 -7.036411 -5.730443 0.000000 0.000000 -0.000000 0.000000 0.000000 -0.000000 0.000001 -0.000004 -0.000000 -92.767991 7.812937 -7.121895 82.902370 -6.024057 -2.097238 11.665767 0.033927 6.817611 0.000000 0.000000 0.000000 0.000000 0.000000 0.000000 0.000000 0.000000 0.000000 10.629226 0.008001 -1.567916 0.315335 0.220705 -0.432224 0.118236 0.263075 -0.353244 -0.378668 -1.271492 0.326494 -11.685035 -4.574095 -4.904682 -0.000000 0.000000 0.000000 -0.000000 0.000000 0.000000 -0.000000 0.000000 0.000000 1.802068 -13.648139 -4.308314 -0.710281 -20.139153 -61.883426 -0.000018 -60.953680 -0.000015 35.923704 2.343226 40.900843 6.371259 1.919671 21.018738 2.597055 20.266833 -24.218324 -0.000002 -0.000001 -0.000000 -0.189486 2.911299 -27.505086 0.407953 2.149729 -21.487814 -0.000001 0.000000 -0.000005 1.321732 7.336935 -16.860351 0.311926 1.887877 -18.762634 -0.000000 0.000001 -0.000005 1.860549 9.917038 -14.489254 0.201467 1.524655 -15.054188 0.000001 0.000000 -0.000000 1.949174 10.829338 -13.919247 0.169484 1.400411 -13.801252 0.000000 0.000000 -0.000002 0.000003 0.000004 0.000000 3.202631 -5.492630 7.084810 -7.091218 36.919706 67.729303 0.000006 54.479361 -0.000024 45.560329 5.928837 -36.554694 -9.324215 -1.588505 -17.520808 3.726579 -24.479068 34.758211 0.000002 0.000003 -0.000001 2.954045 1.012882 13.461918 0.493633 -2.088510 26.593550 -0.000000 -0.000003 0.000001 0.105319 -3.658245 2.530010 0.599066 -2.286883 29.355122 0.000001 -0.000001 -0.000002 0.455259 -7.625775 4.309852 0.111684 -1.014862 12.559479 0.000003 -0.000001 0.000002 -11.184670 -10.181542 7.087831 0.029332 -0.522418 6.426607 -0.000001 0.000001 -0.000001 0.000001 -0.000001 0.000001 0.000000 0.000000 -0.000000 0.000000 0.000000 -0.000000 0.000000 0.000000 -0.000000 0.000000 0.000000 -0.000000 0.000000 0.000000 0.000000 0.000001 0.000000 0.000000 0.000000 0.000000 -0.000000 0.000000 0.000000 0.000000 0.000001 0.000000 0.000000 -0.000000 -0.000000 -0.000000 -0.000000 -0.000000 -0.000000 0.000000 -0.000000 0.000000 
